# xmcd
#
# Track frame offsets:
#	150
#	16448
#	30458
#	43585
#	60905
#	77593
#	91535
#	105498
#	121525
#	130370
#	149525
#	163723
#	177310
#	192360
#	203908
#	225505
#	238920
#	250388
#	269618
#	284753
#
# Disc length: 3952 seconds
#
# Revision: 2
# Processed by: cddbd v1.5.1PL0 Copyright (c) Steve Scherf et al.
# Submitted via: Audio-CD-Archiv 4.00.519
#
DISCID=140f6e14
DTITLE=Moby Grape - Legendary Moby Grape
DYEAR=1989
DGENRE=country
TTITLE0=unbekannt - All My Life
TTITLE1=unbekannt - Nighttime Rider
TTITLE2=unbekannt - Give It Hell
TTITLE3=unbekannt - On The Dime
TTITLE4=unbekannt - Lady Of The Night
TTITLE5=unbekannt - Changing
TTITLE6=unbekannt - Took It All Away
TTITLE7=unbekannt - Bitter Wind In Tanganika
TTITLE8=unbekannt - Talk About Love
TTITLE9=unbekannt - You'll Never Know
TTITLE10=unbekannt - You Can Depend On Me
TTITLE11=unbekannt - Further On Up The Road
TTITLE12=unbekannt - It Don't Take Much
TTITLE13=unbekannt - Gettin' Used To Being Treated Wrong
TTITLE14=unbekannt - Forty Feet Tall
TTITLE15=unbekannt - Forbidden Love
TTITLE16=unbekannt - Telephone Love
TTITLE17=unbekannt - Rodeo
TTITLE18=unbekannt - In The Eyes Of The World (Bonustrack)
TTITLE19=unbekannt - 8:05 (Bonustrack)
EXTD=
EXTT0=
EXTT1=
EXTT2=
EXTT3=
EXTT4=
EXTT5=
EXTT6=
EXTT7=
EXTT8=
EXTT9=
EXTT10=
EXTT11=
EXTT12=
EXTT13=
EXTT14=
EXTT15=
EXTT16=
EXTT17=
EXTT18=
EXTT19=
PLAYORDER=
